<svg width="49" height="108" viewBox="0 0 49 108" fill="none" xmlns="http://www.w3.org/2000/svg">
<g clip-path="url(#clip0_74_89)">
<path d="M24.5 0C10.9909 0 0 10.9909 0 24.5C0 38.0091 10.9909 49 24.5 49C38.0091 49 49 38.0091 49 24.5C49 10.9909 38.0091 0 24.5 0ZM24.5 45.9375C12.6791 45.9375 3.0625 36.3209 3.0625 24.5C3.0625 12.6791 12.6791 3.0625 24.5 3.0625C36.3209 3.0625 45.9375 12.6791 45.9375 24.5C45.9375 36.3209 36.3209 45.9375 24.5 45.9375Z" fill="#23232D"/>
<path d="M30.3259 23.7783C30.7248 24.1771 30.7248 24.8231 30.3259 25.2217L25.2217 30.3259C25.0224 30.5252 24.7611 30.625 24.5 30.625C24.2389 30.625 23.9776 30.5252 23.7783 30.3259C23.3794 29.927 23.3794 29.2811 23.7783 28.8824L27.1399 25.5208H19.3958C18.8321 25.5208 18.375 25.0643 18.375 24.5C18.375 23.9357 18.8321 23.4791 19.3958 23.4791H27.1399L23.7783 20.1175C23.3794 19.7186 23.3794 19.0727 23.7783 18.6741C24.1772 18.2754 24.8231 18.2752 25.2217 18.6741L30.3259 23.7783Z" fill="#23232D"/>
</g>
<g clip-path="url(#clip1_74_89)">
<path d="M24.5 59C38.0091 59 49 69.9909 49 83.5C49 97.0091 38.0091 108 24.5 108C10.9909 108 0 97.0091 0 83.5C0 69.9909 10.9909 59 24.5 59ZM24.5 104.938C36.3209 104.938 45.9375 95.3209 45.9375 83.5C45.9375 71.6791 36.3209 62.0625 24.5 62.0625C12.6791 62.0625 3.0625 71.6791 3.0625 83.5C3.0625 95.3209 12.6791 104.938 24.5 104.938Z" fill="#CDCDCD"/>
<path d="M18.6741 82.7783C18.2752 83.1771 18.2752 83.8231 18.6741 84.2217L23.7783 89.3259C23.9776 89.5252 24.2389 89.625 24.5 89.625C24.7611 89.625 25.0224 89.5252 25.2217 89.3259C25.6206 88.927 25.6206 88.2811 25.2217 87.8824L21.8601 84.5208H29.6042C30.1679 84.5208 30.625 84.0643 30.625 83.5C30.625 82.9357 30.1679 82.4791 29.6042 82.4791H21.8601L25.2217 79.1175C25.6206 78.7186 25.6206 78.0727 25.2217 77.6741C24.8228 77.2754 24.1769 77.2752 23.7783 77.6741L18.6741 82.7783Z" fill="#CDCDCD"/>
</g>
<defs>
<clipPath id="clip0_74_89">
<rect width="49" height="49" fill="white"/>
</clipPath>
<clipPath id="clip1_74_89">
<rect width="49" height="49" fill="white" transform="matrix(-1 0 0 1 49 59)"/>
</clipPath>
</defs>
</svg>
