<svg width="59" height="59" viewBox="0 0 59 59" fill="none" xmlns="http://www.w3.org/2000/svg">
<rect width="59" height="59" rx="29.5" fill="#F8F4FF"/>
<path d="M38.8516 39.1641V31.7812C38.8516 26.5859 34.6406 22.375 29.4453 22.375C24.25 22.375 20.0937 26.6406 20.0937 31.7812V39.1094C19.2187 39.2734 18.6172 39.9844 18.6172 40.8594C18.6172 41.8438 19.4375 42.6641 20.4219 42.6641H38.6328C39.6172 42.6641 40.4375 41.8438 40.4375 40.8594C40.3828 40.0391 39.7266 39.2734 38.8516 39.1641ZM29.4453 24.9453C33.2188 24.9453 36.3359 28.0078 36.3359 31.8359V39.1641H22.6094V31.7812C22.6094 28.0078 25.6719 24.9453 29.4453 24.9453Z" fill="#2D3E50"/>
<path d="M25.2344 32.2188C24.8516 32.2188 24.5234 31.8906 24.5234 31.5078C24.5234 28.8281 26.7109 26.6406 29.3906 26.6406C30.0469 26.6406 30.7031 26.75 31.3047 27.0234C31.6875 27.1875 31.8516 27.5703 31.6875 27.9531C31.5234 28.3359 31.1406 28.5 30.7578 28.3359C30.3203 28.1719 29.8828 28.0625 29.3906 28.0625C27.4766 28.0625 25.8906 29.6484 25.8906 31.5625C25.9453 31.9453 25.6172 32.2188 25.2344 32.2188ZM15.7187 32.875C15.1172 32.875 14.4609 32.875 13.8594 32.875C12.9844 32.8203 12.4922 32.3281 12.4922 31.5625C12.4922 30.7969 12.9844 30.3047 13.8594 30.25C15.1172 30.25 16.3203 30.25 17.5781 30.25C18.4531 30.25 18.9453 30.7422 19 31.5078C19 32.3281 18.5078 32.8203 17.5781 32.875C16.9219 32.9297 16.3203 32.875 15.7187 32.875ZM43.2812 30.3047C43.9375 30.3047 44.5391 30.3047 45.1953 30.3047C46.0156 30.3594 46.5078 30.8516 46.5078 31.5625C46.5078 32.3281 46.0156 32.8203 45.1953 32.875C43.8828 32.9297 42.5703 32.9297 41.2578 32.875C40.4375 32.875 40 32.3281 40 31.5625C40 30.7969 40.4922 30.3047 41.3125 30.3047C42.0234 30.25 42.625 30.3047 43.2812 30.3047ZM42.0781 20.1875C42.0781 19.8594 41.9141 19.5859 41.6406 19.3125C41.3672 19.0391 41.0391 18.9297 40.7109 18.9844C40.3828 18.9297 40.0547 19.0938 39.7266 19.3672C38.7969 20.2969 37.8672 21.2266 36.9375 22.2109C36.6641 22.5391 36.5 22.8672 36.5547 23.25C36.5547 23.5781 36.7187 23.8516 36.9922 24.125C37.2656 24.3984 37.5937 24.5078 37.9219 24.4531C38.25 24.5078 38.5781 24.3438 38.9062 24.0703C39.8359 23.1406 40.7656 22.2109 41.6953 21.2266C41.9687 20.8984 42.0781 20.5156 42.0781 20.1875ZM16.375 20.5703C16.375 20.2422 16.4844 19.9141 16.7031 19.6406C16.9766 19.3672 17.25 19.2031 17.6328 19.2031C17.9609 19.1484 18.3438 19.2578 18.6172 19.4766C19.6562 20.2969 20.6953 21.1172 21.6797 21.9922C22.0078 22.2656 22.1719 22.5938 22.1719 22.9766C22.1719 23.3047 22.0625 23.6328 21.8437 23.8516C21.5703 24.125 21.2969 24.2891 20.9141 24.2891C20.5859 24.3438 20.2031 24.2344 19.9297 24.0156C18.8906 23.1953 17.8516 22.375 16.8672 21.5C16.5391 21.2813 16.375 20.9531 16.375 20.5703ZM30.7578 17.6172C30.7578 18.2734 30.7578 18.9297 30.7578 19.5859C30.7031 20.4062 30.2109 20.8984 29.4453 20.8438C28.7344 20.8438 28.2422 20.3516 28.2422 19.5859C28.2422 18.2188 28.1875 16.9062 28.2422 15.5391C28.2422 14.8281 28.8437 14.2812 29.5 14.2812C30.1562 14.2812 30.7031 14.8281 30.7578 15.5391C30.8125 16.25 30.7578 16.9609 30.7578 17.6172Z" fill="#FF7995"/>
</svg>
