<svg width="59" height="59" viewBox="0 0 59 59" fill="none" xmlns="http://www.w3.org/2000/svg">
<rect width="59" height="59" rx="29.5" fill="#F8F4FF"/>
<path d="M35.5781 23.7188C35.2969 23.7188 35.0156 23.8594 34.875 24.0938C34.5938 24.0938 34.3594 24.0938 34.0781 24.0938C33.75 24.0938 33.4688 24.2344 33.3281 24.5625C32.8594 25.5469 32.3438 26.5781 31.8281 27.5156L31.5 28.2188C31.4531 28.2656 31.4531 28.3125 31.4063 28.3594C31.4063 28.3594 31.3594 28.3125 31.3594 28.2188C30.9375 26.9063 30.0938 24.4688 29.8125 23.5781C29.7188 23.2969 29.4844 23.1562 29.2031 23.1094C28.9219 23.1094 28.6875 23.25 28.5469 23.4844L28.5 23.5781C28.3125 23.9531 28.125 24.3281 27.9375 24.6563C27.8438 24.8438 27.75 25.0312 27.6562 25.2188C27.5156 25.5 27.375 25.8281 27.1875 26.1094C27.1875 26.1563 27.1406 26.1563 27.1406 26.2031C27.1406 26.2031 27.1406 26.1563 27.0937 26.1094C26.9062 25.5469 26.5312 24.4219 26.3906 24C26.2969 23.8125 26.1562 23.625 25.9219 23.5781C25.6875 23.5312 25.5 23.625 25.3125 23.7656C25.2187 23.8594 25.1719 23.9531 25.0781 24C25.0312 24.0469 24.9844 24.0469 24.9375 24.0469C24.7031 24.0469 24.4219 24.0469 24.1875 24.0469C24.1406 24.0469 24.0469 24.0469 24 24.0469C23.7188 24.0469 23.4844 24.2813 23.4844 24.5625C23.4844 24.8438 23.7188 25.0781 24 25.0781C24.0469 25.0781 24.1406 25.0781 24.1875 25.0781C24.4688 25.0781 24.75 25.0781 25.0312 25.0781C25.2187 25.0781 25.4531 24.9844 25.5938 24.8906C25.7813 25.4063 25.9688 26.0625 26.1094 26.4375C26.2969 27 26.7188 27.1875 27 27.1875C27.4688 27.2344 27.8438 27 28.0781 26.5313C28.2188 26.25 28.3594 25.9219 28.5469 25.6406C28.6406 25.4531 28.7344 25.2656 28.8281 25.0781C28.9219 24.9375 28.9688 24.75 29.0625 24.6094C29.4375 25.7344 30 27.4219 30.375 28.4531C30.5156 28.9688 30.8438 29.2031 31.2656 29.25C31.3125 29.25 31.3594 29.25 31.4063 29.25C32.0156 29.25 32.2969 28.7344 32.3906 28.5469L32.7188 27.8438C33.1875 26.9063 33.6563 25.9219 34.1719 24.9844C34.4063 24.9844 34.6406 24.9844 34.875 24.9844C35.0156 25.2188 35.2969 25.3594 35.5781 25.3594C36.0469 25.3594 36.4688 24.9844 36.4688 24.4688C36.4688 23.9531 36.0938 23.7188 35.5781 23.7188Z" fill="#FF7995"/>
<path d="M41.8594 37.3594C41.8594 32.5313 41.8594 27.7031 41.8594 22.875C41.8594 20.2969 39.9844 18.4219 37.3594 18.4219H36.5156V20.0156V20.25H36.75C37.2656 20.25 37.7344 20.2031 38.25 20.3906C39.3281 20.7656 39.9375 21.7031 39.9375 22.875V31.5469V35.9062C39.9375 36.375 39.9375 36.8438 39.9375 37.2656C39.9375 38.2969 39.9375 39.375 39.9375 40.4062C39.9375 41.1094 39.7031 41.7656 39.2344 42.2344C38.7188 42.75 38.0625 43.0312 37.2656 43.0312C35.1094 43.0312 32.9531 43.0312 30.7969 43.0312H22.5469C21 43.0312 19.875 41.9531 19.875 40.4062C19.875 34.6875 19.875 28.9688 19.875 23.25C19.875 22.8281 19.875 22.3594 20.0156 21.9844C20.3438 20.9531 21.0469 20.3906 22.0781 20.2969C22.3594 20.25 22.7344 20.25 23.1094 20.2969H23.3437V18.4219H22.3125C21.9844 18.4219 21.7031 18.4687 21.4219 18.5156C19.4062 18.9844 18.0469 20.7188 18.0469 22.7812V33.6562C18.0469 35.9531 18.0469 38.25 18.0469 40.5469C18.0469 40.9219 18.0938 41.3438 18.2344 41.7656C18.6563 43.2656 20.1094 44.8594 22.4062 44.8594H22.5C23.625 44.8594 24.75 44.8594 25.9219 44.8594C26.4375 44.8594 26.9062 44.8594 27.4219 44.8594H28.3125H32.7656C34.4062 44.8594 36.0938 44.8594 37.7344 44.8594C39.7969 44.8594 41.625 43.0781 41.7656 41.0625C41.8125 40.0781 41.8125 39.0938 41.8125 38.1563L41.8594 37.3594Z" fill="#2D3E50"/>
<path d="M35.625 20.0156C35.625 20.4844 35.4375 20.6719 34.9687 20.6719H25.0781C24.5156 20.6719 24.375 20.4844 24.375 19.9219C24.375 19.5 24.375 18.8438 24.375 18.4219C24.375 18.0469 24.5625 17.8125 24.9375 17.8125C25.3594 17.8125 25.7812 17.8125 26.2031 17.7656C26.9062 17.625 27.4687 17.2031 27.8437 16.5938C27.9844 16.3594 28.0781 16.1719 28.2188 15.9375C28.5 15.4688 28.9219 15.2344 29.4844 15.1875C29.8125 15.1875 30.1406 15.1875 30.4219 15.1875C31.0781 15.1875 31.5469 15.4688 31.8281 16.0313C32.1094 16.4062 32.3438 16.8281 32.6719 17.1562C33.1875 17.6719 33.8438 17.8125 34.5938 17.8125C35.5781 17.8125 35.625 17.8594 35.625 18.8437C35.625 19.1719 35.625 19.6875 35.625 20.0156Z" fill="#2D3E50"/>
<path d="M35.1562 32.1563C32.9531 32.1563 30.2812 32.1563 28.7344 32.1563C28.7344 32.625 28.7344 33.0938 28.7344 33.5625C30.2344 33.5625 32.9062 33.5625 35.1562 33.5625C36.6094 33.5625 36.75 33.5625 38.2031 33.5625C38.2031 33.0938 38.2031 32.625 38.2031 32.1563C36.7969 32.1563 36.6094 32.1563 35.1562 32.1563ZM38.2031 38.0156C36.2344 38.0156 35.8594 38.0156 34.2656 38.0156C32.8125 38.0156 30.2344 38.0156 28.7812 38.0156C28.7812 38.4844 28.7812 38.9531 28.7812 39.4219C30.2344 39.4219 32.8125 39.4219 34.2656 39.4219C35.9062 39.4219 36.2812 39.4219 38.2031 39.4219C38.2031 38.9531 38.2031 38.4844 38.2031 38.0156ZM22.5 32.6719C22.5 32.7188 22.5 32.7656 22.5469 32.8125L22.7344 33.1406C22.7812 33.1875 22.7813 33.2813 22.8281 33.3281C22.875 33.375 22.875 33.4688 22.9219 33.5156L23.1562 33.9844C23.2031 34.0313 23.2031 34.125 23.25 34.1719L23.3906 34.4531C23.4375 34.5469 23.5312 34.6406 23.6719 34.7344C23.7656 34.7813 23.8594 34.8281 23.9531 34.8281C24.1406 34.8281 24.3281 34.7344 24.4688 34.5938C24.5625 34.5 24.6094 34.4063 24.7031 34.3594L24.8438 34.1719C25.0781 33.8906 25.2656 33.6563 25.5 33.375L26.2969 32.4375C26.4844 32.2031 26.6719 32.0156 26.8594 31.7813L27.0937 31.5C27.2812 31.3125 27.2344 31.125 27.1406 31.0313C27 30.8906 26.8125 30.8438 26.6719 30.9375C26.5312 31.0313 26.3906 31.1719 26.25 31.3125C26.0156 31.5 25.7812 31.7344 25.5469 31.9219L25.2656 32.1563C25.125 32.2969 24.9375 32.4375 24.7969 32.5781L24 33.2813L23.1094 32.3438C23.0156 32.2969 22.9687 32.25 22.875 32.25H22.8281C22.7344 32.25 22.6875 32.2969 22.5938 32.3438C22.5469 32.4844 22.5 32.5781 22.5 32.6719ZM24.8438 36.375C23.5312 36.375 22.5 37.4063 22.5 38.7188C22.5 40.0313 23.5312 41.0625 24.8438 41.0625C26.1562 41.0625 27.1875 40.0313 27.1875 38.7188C27.1875 37.4531 26.1094 36.375 24.8438 36.375ZM24.8438 40.2656C24 40.2656 23.2969 39.5625 23.2969 38.7188C23.2969 37.875 24 37.1719 24.8438 37.1719C25.6875 37.1719 26.3906 37.875 26.3906 38.7188C26.3906 39.5625 25.6875 40.2656 24.8438 40.2656Z" fill="#FF7995"/>
</svg>
