<svg width="175" height="54" viewBox="0 0 175 54" fill="none" xmlns="http://www.w3.org/2000/svg">
<path d="M62.7539 36.5879C62.7539 35.5449 63.6855 34.8008 65.0273 34.8008C66.2871 34.8008 67.2129 35.5508 67.2598 36.582H66.2871C66.2168 35.9961 65.7422 35.6328 64.9922 35.6328C64.248 35.6328 63.7559 36.002 63.7559 36.5352C63.7559 36.957 64.0781 37.2383 64.7695 37.4141L65.7129 37.6426C66.9434 37.9531 67.3887 38.3984 67.3887 39.2949C67.3887 40.3555 66.3867 41.1055 64.9629 41.1055C63.627 41.1055 62.6953 40.3789 62.5898 39.3008H63.6094C63.7207 39.9336 64.2012 40.2734 65.0273 40.2734C65.8535 40.2734 66.3633 39.9219 66.3633 39.3711C66.3633 38.9375 66.1113 38.7031 65.4258 38.5215L64.3535 38.2461C63.2812 37.9707 62.7539 37.4199 62.7539 36.5879ZM70.459 40.2383C71.4199 40.2383 72.1582 39.5645 72.1582 38.6855V38.1875L70.5293 38.2871C69.709 38.3398 69.2402 38.7031 69.2402 39.2773C69.2402 39.8574 69.7266 40.2383 70.459 40.2383ZM70.2305 41.1055C69.0176 41.1055 68.2031 40.373 68.2031 39.2773C68.2031 38.2344 69.0059 37.5781 70.4121 37.4961L72.1582 37.3965V36.8867C72.1582 36.1426 71.666 35.6973 70.8223 35.6973C70.0371 35.6973 69.5449 36.0664 69.416 36.6641H68.4316C68.502 35.6094 69.4043 34.8008 70.8457 34.8008C72.2754 34.8008 73.1777 35.5742 73.1777 36.7871V41H72.2109V39.9512H72.1875C71.8242 40.6484 71.0508 41.1055 70.2305 41.1055ZM74.5254 41V32.5449H75.5449V41H74.5254ZM79.4473 41.1055C77.7598 41.1055 76.623 39.8926 76.623 37.9531C76.623 36.0078 77.7598 34.8008 79.4473 34.8008C81.1289 34.8008 82.2656 36.0078 82.2656 37.9531C82.2656 39.8926 81.1289 41.1055 79.4473 41.1055ZM79.4473 40.209C80.5254 40.209 81.2285 39.3887 81.2285 37.9531C81.2285 36.5176 80.5254 35.6973 79.4473 35.6973C78.3691 35.6973 77.6602 36.5176 77.6602 37.9531C77.6602 39.3887 78.3691 40.209 79.4473 40.209ZM83.2969 41V34.9062H84.2578V35.8789H84.2812C84.5684 35.2344 85.1895 34.8008 86.0098 34.8008C86.8418 34.8008 87.457 35.2227 87.7207 35.9609H87.7441C88.084 35.2344 88.7988 34.8008 89.6543 34.8008C90.8613 34.8008 91.6406 35.5859 91.6406 36.793V41H90.6211V37.0273C90.6211 36.1953 90.1582 35.7031 89.3555 35.7031C88.5469 35.7031 87.9785 36.3008 87.9785 37.127V41H86.959V36.916C86.959 36.1836 86.4668 35.7031 85.7109 35.7031C84.9023 35.7031 84.3164 36.3359 84.3164 37.1797V41H83.2969ZM94.9512 40.2383C95.9121 40.2383 96.6504 39.5645 96.6504 38.6855V38.1875L95.0215 38.2871C94.2012 38.3398 93.7324 38.7031 93.7324 39.2773C93.7324 39.8574 94.2188 40.2383 94.9512 40.2383ZM94.7227 41.1055C93.5098 41.1055 92.6953 40.373 92.6953 39.2773C92.6953 38.2344 93.498 37.5781 94.9043 37.4961L96.6504 37.3965V36.8867C96.6504 36.1426 96.1582 35.6973 95.3145 35.6973C94.5293 35.6973 94.0371 36.0664 93.9082 36.6641H92.9238C92.9941 35.6094 93.8965 34.8008 95.3379 34.8008C96.7676 34.8008 97.6699 35.5742 97.6699 36.7871V41H96.7031V39.9512H96.6797C96.3164 40.6484 95.543 41.1055 94.7227 41.1055ZM99.293 33.4355H100.312V34.9062H101.496V35.7441H100.312V39.3652C100.312 39.9219 100.547 40.1738 101.068 40.1738C101.186 40.1738 101.42 40.1562 101.49 40.1445V41C101.367 41.0293 101.086 41.0469 100.846 41.0469C99.7266 41.0469 99.293 40.5898 99.293 39.418V35.7441H98.3848V34.9062H99.293V33.4355ZM102.639 41V32.5449H103.658V41H102.639ZM105.088 41V34.9062H106.107V41H105.088ZM105.598 33.8809C105.252 33.8809 104.965 33.5938 104.965 33.248C104.965 32.8965 105.252 32.6152 105.598 32.6152C105.949 32.6152 106.236 32.8965 106.236 33.248C106.236 33.5938 105.949 33.8809 105.598 33.8809ZM108.557 37.6133L111.252 34.9062H112.488L109.846 37.5371L112.57 41H111.387L109.125 38.1641L108.557 38.7031V41H107.537V32.5449H108.557V37.6133ZM120.768 34.9062L118.529 41H117.486L115.242 34.9062H116.314L117.996 39.916H118.02L119.707 34.9062H120.768ZM123.463 40.2383C124.424 40.2383 125.162 39.5645 125.162 38.6855V38.1875L123.533 38.2871C122.713 38.3398 122.244 38.7031 122.244 39.2773C122.244 39.8574 122.73 40.2383 123.463 40.2383ZM123.234 41.1055C122.021 41.1055 121.207 40.373 121.207 39.2773C121.207 38.2344 122.01 37.5781 123.416 37.4961L125.162 37.3965V36.8867C125.162 36.1426 124.67 35.6973 123.826 35.6973C123.041 35.6973 122.549 36.0664 122.42 36.6641H121.436C121.506 35.6094 122.408 34.8008 123.85 34.8008C125.279 34.8008 126.182 35.5742 126.182 36.7871V41H125.215V39.9512H125.191C124.828 40.6484 124.055 41.1055 123.234 41.1055ZM130.266 41V35.7441H129.416V34.9062H130.266V34.2266C130.266 33.0547 130.811 32.498 131.936 32.498C132.164 32.498 132.41 32.5215 132.557 32.5449V33.3711C132.434 33.3535 132.264 33.3359 132.094 33.3359C131.543 33.3359 131.279 33.6289 131.279 34.2324V34.9062H132.527V35.7441H131.285V41H130.266ZM138.586 34.9062V41H137.619V40.0098H137.596C137.232 40.7129 136.6 41.1055 135.662 41.1055C134.332 41.1055 133.553 40.2441 133.553 38.8613V34.9062H134.572V38.6797C134.572 39.6699 135.035 40.2031 135.979 40.2031C136.969 40.2031 137.566 39.5234 137.566 38.4863V34.9062H138.586ZM139.91 41V34.9062H140.871V35.8789H140.895C141.234 35.2227 141.885 34.8008 142.828 34.8008C144.164 34.8008 144.938 35.6621 144.938 37.0449V41H143.918V37.2266C143.918 36.2422 143.455 35.7031 142.518 35.7031C141.557 35.7031 140.93 36.3828 140.93 37.4141V41H139.91ZM147.311 37.6133L150.006 34.9062H151.242L148.6 37.5371L151.324 41H150.141L147.879 38.1641L147.311 38.7031V41H146.291V32.5449H147.311V37.6133ZM152.391 33.4355H153.41V34.9062H154.594V35.7441H153.41V39.3652C153.41 39.9219 153.645 40.1738 154.166 40.1738C154.283 40.1738 154.518 40.1562 154.588 40.1445V41C154.465 41.0293 154.184 41.0469 153.943 41.0469C152.824 41.0469 152.391 40.5898 152.391 39.418V35.7441H151.482V34.9062H152.391V33.4355ZM155.578 36.5879C155.578 35.5449 156.51 34.8008 157.852 34.8008C159.111 34.8008 160.037 35.5508 160.084 36.582H159.111C159.041 35.9961 158.566 35.6328 157.816 35.6328C157.072 35.6328 156.58 36.002 156.58 36.5352C156.58 36.957 156.902 37.2383 157.594 37.4141L158.537 37.6426C159.768 37.9531 160.213 38.3984 160.213 39.2949C160.213 40.3555 159.211 41.1055 157.787 41.1055C156.451 41.1055 155.52 40.3789 155.414 39.3008H156.434C156.545 39.9336 157.025 40.2734 157.852 40.2734C158.678 40.2734 159.188 39.9219 159.188 39.3711C159.188 38.9375 158.936 38.7031 158.25 38.5215L157.178 38.2461C156.105 37.9707 155.578 37.4199 155.578 36.5879ZM161.326 41V34.9062H162.346V41H161.326ZM161.836 33.8809C161.49 33.8809 161.203 33.5938 161.203 33.248C161.203 32.8965 161.49 32.6152 161.836 32.6152C162.188 32.6152 162.475 32.8965 162.475 33.248C162.475 33.5938 162.188 33.8809 161.836 33.8809ZM164.227 43.2793C164.104 43.2793 163.898 43.2676 163.787 43.2441V42.3887C163.898 42.4121 164.057 42.418 164.186 42.418C164.754 42.418 165.07 42.1426 165.305 41.4336L165.445 41.0059L163.195 34.9062H164.285L165.973 39.9805H165.99L167.678 34.9062H168.75L166.354 41.4277C165.832 42.8516 165.328 43.2793 164.227 43.2793ZM171.451 40.2383C172.412 40.2383 173.15 39.5645 173.15 38.6855V38.1875L171.521 38.2871C170.701 38.3398 170.232 38.7031 170.232 39.2773C170.232 39.8574 170.719 40.2383 171.451 40.2383ZM171.223 41.1055C170.01 41.1055 169.195 40.373 169.195 39.2773C169.195 38.2344 169.998 37.5781 171.404 37.4961L173.15 37.3965V36.8867C173.15 36.1426 172.658 35.6973 171.814 35.6973C171.029 35.6973 170.537 36.0664 170.408 36.6641H169.424C169.494 35.6094 170.396 34.8008 171.838 34.8008C173.268 34.8008 174.17 35.5742 174.17 36.7871V41H173.203V39.9512H173.18C172.816 40.6484 172.043 41.1055 171.223 41.1055Z" fill="#23232D"/>
<path d="M62.5156 20.7891H64.7891C64.8411 21.2474 65.0833 21.6198 65.5156 21.9062C65.9531 22.1875 66.487 22.3281 67.1172 22.3281C67.7422 22.3281 68.25 22.1953 68.6406 21.9297C69.0365 21.6589 69.2344 21.3151 69.2344 20.8984C69.2344 20.5339 69.0885 20.2396 68.7969 20.0156C68.5052 19.7917 68.0182 19.6042 67.3359 19.4531L65.8672 19.1328C63.7995 18.6901 62.7656 17.6406 62.7656 15.9844C62.7656 14.9531 63.1667 14.1198 63.9688 13.4844C64.776 12.849 65.8125 12.5312 67.0781 12.5312C68.3802 12.5312 69.4193 12.8411 70.1953 13.4609C70.9714 14.0755 71.3698 14.8958 71.3906 15.9219H69.1797C69.1432 15.4479 68.9323 15.0755 68.5469 14.8047C68.1667 14.5286 67.6797 14.3906 67.0859 14.3906C66.5026 14.3906 66.0312 14.5182 65.6719 14.7734C65.3177 15.0286 65.1406 15.3646 65.1406 15.7812C65.1406 16.125 65.2839 16.4036 65.5703 16.6172C65.862 16.8307 66.3333 17.013 66.9844 17.1641L68.3516 17.4531C69.4818 17.6927 70.3047 18.0677 70.8203 18.5781C71.3359 19.0833 71.5938 19.7656 71.5938 20.625C71.5938 21.7188 71.1823 22.5885 70.3594 23.2344C69.5365 23.875 68.4245 24.1953 67.0234 24.1953C65.6641 24.1953 64.5807 23.8932 63.7734 23.2891C62.9714 22.6797 62.5521 21.8464 62.5156 20.7891ZM75.4062 24H73.0469V12.7266H75.4062V24ZM77.0391 24V22.4609L82.7656 14.7344V14.6719H77.1719V12.7266H85.5859V14.2578L79.8828 21.9922V22.0469H85.7422V24H77.0391ZM89.6328 24H87.375V12.7266H89.3438L94.6094 20.0703H94.6719V12.7266H96.9297V24H94.9766L89.7031 16.6172H89.6328V24ZM101.172 24H98.8125V12.7266H101.172V24ZM105.305 24H103.047V12.7266H105.016L110.281 20.0703H110.344V12.7266H112.602V24H110.648L105.375 16.6172H105.305V24ZM124.562 19.2656C124.562 20.8021 124.12 22.0078 123.234 22.8828C122.354 23.7578 121.13 24.1953 119.562 24.1953C117.875 24.1953 116.547 23.6745 115.578 22.6328C114.615 21.5911 114.133 20.1562 114.133 18.3281C114.133 16.526 114.612 15.1094 115.57 14.0781C116.534 13.0469 117.846 12.5312 119.508 12.5312C120.82 12.5312 121.932 12.8854 122.844 13.5938C123.755 14.3021 124.294 15.2266 124.461 16.3672H122.094C121.922 15.7786 121.607 15.3177 121.148 14.9844C120.695 14.651 120.151 14.4844 119.516 14.4844C118.583 14.4844 117.854 14.8203 117.328 15.4922C116.802 16.1641 116.539 17.099 116.539 18.2969C116.539 19.5156 116.812 20.4766 117.359 21.1797C117.911 21.8828 118.659 22.2344 119.602 22.2344C120.372 22.2344 121 22.0182 121.484 21.5859C121.974 21.1536 122.232 20.5885 122.258 19.8906L122.266 19.7109H119.812V17.9922H124.562V19.2656ZM136.586 22.0469V24H129.297V12.7266H131.656V22.0469H136.586ZM138.625 14.1016C139.604 13.0547 140.93 12.5312 142.602 12.5312C144.273 12.5312 145.596 13.0547 146.57 14.1016C147.549 15.1484 148.039 16.5703 148.039 18.3672C148.039 20.1589 147.549 21.5781 146.57 22.625C145.591 23.6719 144.268 24.1953 142.602 24.1953C140.93 24.1953 139.604 23.6719 138.625 22.625C137.651 21.5781 137.164 20.1589 137.164 18.3672C137.164 16.5703 137.651 15.1484 138.625 14.1016ZM144.805 15.5469C144.258 14.849 143.523 14.5 142.602 14.5C141.68 14.5 140.943 14.849 140.391 15.5469C139.844 16.2448 139.57 17.1849 139.57 18.3672C139.57 19.5443 139.844 20.4818 140.391 21.1797C140.938 21.8724 141.674 22.2188 142.602 22.2188C143.523 22.2188 144.258 21.8724 144.805 21.1797C145.352 20.4818 145.625 19.5443 145.625 18.3672C145.625 17.1849 145.352 16.2448 144.805 15.5469ZM159.641 19.2656C159.641 20.8021 159.198 22.0078 158.312 22.8828C157.432 23.7578 156.208 24.1953 154.641 24.1953C152.953 24.1953 151.625 23.6745 150.656 22.6328C149.693 21.5911 149.211 20.1562 149.211 18.3281C149.211 16.526 149.69 15.1094 150.648 14.0781C151.612 13.0469 152.924 12.5312 154.586 12.5312C155.898 12.5312 157.01 12.8854 157.922 13.5938C158.833 14.3021 159.372 15.2266 159.539 16.3672H157.172C157 15.7786 156.685 15.3177 156.227 14.9844C155.773 14.651 155.229 14.4844 154.594 14.4844C153.661 14.4844 152.932 14.8203 152.406 15.4922C151.88 16.1641 151.617 17.099 151.617 18.2969C151.617 19.5156 151.891 20.4766 152.438 21.1797C152.99 21.8828 153.737 22.2344 154.68 22.2344C155.451 22.2344 156.078 22.0182 156.562 21.5859C157.052 21.1536 157.31 20.5885 157.336 19.8906L157.344 19.7109H154.891V17.9922H159.641V19.2656ZM162.312 14.1016C163.292 13.0547 164.617 12.5312 166.289 12.5312C167.961 12.5312 169.284 13.0547 170.258 14.1016C171.237 15.1484 171.727 16.5703 171.727 18.3672C171.727 20.1589 171.237 21.5781 170.258 22.625C169.279 23.6719 167.956 24.1953 166.289 24.1953C164.617 24.1953 163.292 23.6719 162.312 22.625C161.339 21.5781 160.852 20.1589 160.852 18.3672C160.852 16.5703 161.339 15.1484 162.312 14.1016ZM168.492 15.5469C167.945 14.849 167.211 14.5 166.289 14.5C165.367 14.5 164.63 14.849 164.078 15.5469C163.531 16.2448 163.258 17.1849 163.258 18.3672C163.258 19.5443 163.531 20.4818 164.078 21.1797C164.625 21.8724 165.362 22.2188 166.289 22.2188C167.211 22.2188 167.945 21.8724 168.492 21.1797C169.039 20.4818 169.312 19.5443 169.312 18.3672C169.312 17.1849 169.039 16.2448 168.492 15.5469Z" fill="#23232D"/>
<path d="M53.0588 26.5294C53.0588 33.5655 50.2638 40.3133 45.2885 45.2885C40.3133 50.2638 33.5655 53.0588 26.5294 53.0588C19.4934 53.0588 12.7455 50.2638 7.77029 45.2885C2.79506 40.3133 1.06241e-06 33.5655 0 26.5294L26.5294 26.5294H53.0588Z" fill="#99E9A5"/>
<path d="M39.1641 39H34.5669V22.3545H34.4302L27.731 38.7607H24.4839L17.7847 22.3545H17.6479V39H13.0508V14.3394H19.0322L26.0391 31.8223H26.1758L33.1826 14.3394H39.1641V39Z" fill="#23232D"/>
</svg>
