<svg width="59" height="59" viewBox="0 0 59 59" fill="none" xmlns="http://www.w3.org/2000/svg">
<rect width="59" height="59" rx="29.5" fill="#F8F4FF"/>
<path d="M28.8281 32.9063H30.75C31.0312 32.9063 31.2656 32.8594 31.5 32.7656C31.7344 32.6719 31.9219 32.5781 32.0625 32.3906C32.2031 32.25 32.3438 32.0625 32.4375 31.8281C32.5312 31.6406 32.5781 31.4062 32.5781 31.1719C32.5781 30.9375 32.5312 30.7031 32.4375 30.5156C32.3438 30.3281 32.25 30.1406 32.0625 30C31.9219 29.8594 31.7344 29.7187 31.5 29.6719C31.2656 29.5781 31.0312 29.5312 30.75 29.5312H27.0469V30.8437H30.75C30.8906 30.8437 31.0313 30.8906 31.125 30.9844C31.2188 31.0781 31.2656 31.1719 31.2656 31.3125C31.2656 31.4531 31.2188 31.5937 31.125 31.6406C31.0313 31.7344 30.9375 31.7812 30.75 31.7812H28.8281C28.2656 31.7812 27.7969 31.9219 27.4688 32.2031C27.1406 32.4844 27 32.9063 27 33.4688V35.2031H32.4375V33.8906H28.2188V33.375C28.2656 33.1875 28.3125 32.9063 28.8281 32.9063ZM38.4375 32.5313V29.5312H37.125V32.5313H35.1094C34.875 32.5313 34.7344 32.4844 34.5937 32.3906C34.5 32.2969 34.4531 32.1562 34.4531 31.875V29.5312H33.1406V31.9219C33.1406 32.5781 33.3281 33.0469 33.6562 33.3281C33.9844 33.6094 34.4531 33.7969 35.0625 33.7969H37.0781V35.2031H38.4375V33.7969H39.1875V32.5313H38.4375Z" fill="#FF7995"/>
<path d="M44.5781 33.6094C44.0156 36.4688 42.4688 38.9531 40.3594 40.7344C38.25 42.5156 35.4844 43.5469 32.5781 43.5469H32.5313C26.1094 43.5 20.8594 38.5312 20.3906 32.1562C17.8125 31.5469 17.25 28.2188 17.25 28.0781C17.2031 27.8906 17.25 27.7031 17.2969 27.5156C16.6875 25.6875 16.0313 23.7187 15.375 21.75C15.0469 20.6719 15.1406 19.5 15.7031 18.5156C16.125 17.7188 16.875 17.1094 17.7656 16.875C17.9063 16.8281 18.0469 16.7813 18.1875 16.7344C18.4219 16.6406 18.7031 16.5469 18.9844 16.5C19.0313 16.5 19.0313 16.5 19.0781 16.5C19.3594 16.5 19.6406 16.5938 19.875 16.8281C20.0625 17.0156 20.2031 17.2969 20.2031 17.625C20.1563 18.3281 19.5 18.75 18.8438 18.75H18.7969C18.5625 18.75 18.4219 18.6562 18.2813 18.6094C18.1875 18.5625 18.1406 18.5625 18.0469 18.5156C17.9063 18.4688 17.7188 18.6094 17.5313 18.7969C16.8281 19.4531 16.5938 20.25 16.875 21.1875C17.5313 23.25 18.2813 25.2656 18.8438 26.8125L19.0781 27.1875C19.2188 27.3281 19.3594 27.5625 19.3594 27.75C19.4063 28.125 19.5469 28.5 19.6875 28.8281C19.6875 28.8281 19.7344 28.875 19.7344 28.9219C19.7344 28.9688 19.7813 28.9688 19.7813 29.0156C20.1094 29.7188 20.5781 30.0469 21.0938 30.0938H21.1406H21.1875C21.5156 30.0938 22.5938 29.9062 22.9219 27.75C22.9688 27.375 23.2031 27.0938 23.4844 26.9531L23.6719 26.4844C24 25.5938 24.3281 24.7031 24.6563 23.8125C24.75 23.5781 24.8438 23.2969 24.9844 23.0156C25.4531 21.8906 25.9219 20.7188 25.5 19.6875C25.1719 18.9375 24.7969 18.5625 24.5156 18.5625C24.4219 18.5625 24.2813 18.6094 24.1406 18.6563C24.0469 18.7031 23.8594 18.75 23.625 18.75C23.4844 18.75 23.2969 18.7031 23.1563 18.6563C22.5938 18.375 22.5 17.9531 22.4531 17.7656C22.4063 17.3438 22.6406 16.9688 23.0625 16.6406C23.2031 16.5 23.4375 16.4531 23.625 16.4531C24.0469 16.4531 24.4219 16.6875 24.7031 16.875C24.7969 16.875 24.8438 16.9219 24.8906 16.9219C25.3594 17.1562 25.9219 17.4844 26.3906 17.9062C27.0469 18.5156 27.4219 19.4063 27.375 20.5313C27.375 21 27.2813 21.5156 27.1406 21.9844C26.8594 22.875 26.5313 23.7656 26.2031 24.6562C25.9219 25.4531 25.6406 26.25 25.3594 27.0469C25.3125 27.2344 25.2188 27.4688 25.1719 27.6562C25.2188 27.7969 25.2188 27.9375 25.1719 28.0781C24.75 30.75 23.3438 31.6875 22.4531 32.0625C22.4531 32.3438 22.4531 32.5781 22.5 32.7656C22.8281 34.9219 23.8125 36.9375 25.3594 38.4844C26.625 39.7969 28.2188 40.6875 30 41.1562C30.8438 41.3906 31.7344 41.4844 32.625 41.4844C38.25 41.4844 42.8438 36.8906 42.8438 31.2656C42.8438 29.25 42.2344 27.2812 41.1094 25.5938C41.7188 25.2188 42.2344 24.75 42.6094 24.1406C42.7969 24.4219 42.9844 24.6562 43.125 24.9375C43.875 26.2031 44.4375 27.6094 44.6719 29.0625C44.9063 30.6094 44.9063 32.1094 44.5781 33.6094Z" fill="#2D3E50"/>
<path d="M38.8125 25.125C40.5729 25.125 42 23.6979 42 21.9375C42 20.1771 40.5729 18.75 38.8125 18.75C37.0521 18.75 35.625 20.1771 35.625 21.9375C35.625 23.6979 37.0521 25.125 38.8125 25.125Z" fill="#FF7995"/>
</svg>
